{"title":"The.Assassin.2015.1080p.WEB-DL.x264.AAC-SHOW","uid":12523496,"size":2410801698,"categoryP":"video","categoryS":"hd___movies","magnet":"?xt=urn:btih:3f56185388bd4ef4f7dabcbeff109c310be553a6&amp;dn=The.Assassin.2015.1080p.WEB-DL.x264.AAC-SHOW&amp;tr=udp%3A%2F%2Ftracker.leechers-paradise.org%3A6969&amp;tr=udp%3A%2F%2Fzer0day.ch%3A1337&amp;tr=udp%3A%2F%2Fopen.demonii.com%3A1337&amp;tr=udp%3A%2F%2Ftracker.coppersurfer.tk%3A6969&amp;tr=udp%3A%2F%2Fexodus.desync.com%3A6969","seeders":4,"leechers":3,"uploader":"gaoqingkongxiaobian","files":3,"time":1443964210,"description":"General\r\nComplete name : Nie.Yin.Niang.2015.WEBDL.1080P.X264.mp4\r\nFormat : MPEG-4\r\nFormat profile : Base Media\r\nCodec ID : isom\r\nFile size : 2.24 GiB\r\nDuration : 1h 46mn\r\nOverall bit rate : 3 011 Kbps\r\nWriting application : Lavf56.34.100\r\n\r\nVideo\r\nID : 1\r\nFormat : AVC\r\nFormat/Info : Advanced Video Codec\r\nFormat profile :   \r\nFormat settings, CABAC : Yes\r\nFormat settings, ReFrames : 3 frames\r\nCodec ID : avc1\r\nCodec ID/Info : Advanced Video Coding\r\nDuration : 1h 46mn\r\nBit rate : 2 815 Kbps\r\nWidth : 1 520 pixels\r\nHeight : 1 080 pixels\r\nDisplay aspect ratio : 1.407\r\nFrame rate mode : Variable\r\nFrame rate : 24.000 fps\r\nMinimum frame rate : 8.065 fps\r\nMaximum frame rate : 16 000.000 fps\r\nColor space : YUV\r\nChroma subsampling : 4:2:0\r\nBit depth : 8 bits\r\nScan type : Progressive\r\nBits/(Pixel*Frame) : 0.071\r\nStream size : 2.09 GiB (93%)\r\nColor primaries : BT.709\r\nTransfer characteristics : BT.709\r\nMatrix coefficients : BT.709\r\nColor range : Limited\r\n\r\nAudio\r\nID : 2\r\nFormat : AAC\r\nFormat/Info : Advanced Audio Codec\r\nFormat profile : LC\r\nCodec ID : 40\r\nDuration : 1h 46mn\r\nBit rate mode : Constant\r\nBit rate : 192 Kbps\r\nChannel(s) : 2 channels\r\nChannel positions : Front: L R\r\nSampling rate : 44.1 KHz\r\nCompression mode : Lossy\r\nStream size : 144 MiB (6%)","torrent":{"xt":"urn:btih:3f56185388bd4ef4f7dabcbeff109c310be553a6","amp;dn":"The.Assassin.2015.1080p.WEB-DL.x264.AAC-SHOW","amp;tr":["udp%3A%2F%2Ftracker.leechers-paradise.org%3A6969","udp%3A%2F%2Fzer0day.ch%3A1337","udp%3A%2F%2Fopen.demonii.com%3A1337","udp%3A%2F%2Ftracker.coppersurfer.tk%3A6969","udp%3A%2F%2Fexodus.desync.com%3A6969"],"infoHash":"3f56185388bd4ef4f7dabcbeff109c310be553a6","infoHashBuffer":{"type":"Buffer","data":[63,86,24,83,136,189,78,244,247,218,188,190,255,16,156,49,11,229,83,166]},"announce":[],"urlList":[]}}